<?xml version="1.0" standalone="no"?>
<!DOCTYPE svg PUBLIC "-//W3C//DTD SVG 20010904//EN"
 "http://www.w3.org/TR/2001/REC-SVG-20010904/DTD/svg10.dtd">
<svg version="1.0" xmlns="http://www.w3.org/2000/svg"
 width="960.000000pt" height="960.000000pt" viewBox="0 0 960.000000 960.000000"
 preserveAspectRatio="xMidYMid meet">
<metadata>
Created by potrace 1.11, written by Peter Selinger 2001-2013
</metadata>
<g transform="translate(0.000000,960.000000) scale(0.100000,-0.100000)"
fill="#000000" stroke="none">
<path d="M4567 9594 c-4 -4 -29 -9 -55 -10 -122 -6 -350 -27 -408 -38 -11 -2
-39 -7 -64 -11 -25 -4 -54 -9 -65 -11 -11 -3 -38 -7 -59 -9 -21 -3 -42 -8 -46
-10 -5 -3 -25 -7 -46 -10 -22 -3 -48 -7 -59 -10 -90 -20 -197 -47 -230 -57
-49 -14 -55 -16 -81 -22 -11 -2 -75 -23 -143 -45 -67 -23 -128 -41 -136 -41
-8 0 -15 -4 -15 -10 0 -5 -3 -9 -7 -8 -7 2 -75 -22 -148 -53 -35 -14 -32 -13
-67 -23 -16 -5 -28 -12 -28 -17 0 -5 -6 -9 -14 -9 -14 0 -271 -117 -291 -133
-5 -4 -39 -22 -75 -41 -101 -52 -163 -87 -182 -104 -10 -8 -18 -12 -18 -9 0 6
-61 -31 -87 -53 -7 -5 -14 -10 -17 -10 -8 0 -101 -64 -104 -72 -2 -5 -8 -8
-13 -8 -12 0 -193 -130 -197 -141 -2 -5 -10 -9 -17 -9 -7 0 -15 -3 -17 -8 -2
-4 -23 -23 -48 -42 -24 -19 -52 -42 -61 -50 -9 -8 -29 -25 -45 -37 -16 -12
-48 -39 -71 -61 -24 -21 -43 -37 -43 -36 0 11 -255 -241 -344 -339 -33 -38
-73 -82 -89 -97 -15 -16 -27 -33 -27 -38 0 -6 -4 -12 -9 -14 -9 -3 -72 -76
-111 -128 -14 -18 -29 -38 -35 -45 -5 -6 -14 -18 -20 -26 -5 -9 -35 -49 -65
-89 -30 -41 -54 -77 -53 -82 2 -4 -1 -8 -6 -8 -6 0 -25 -25 -43 -55 -18 -30
-36 -55 -40 -55 -5 0 -8 -6 -8 -14 0 -8 -7 -22 -16 -30 -8 -9 -13 -16 -9 -16
4 0 0 -7 -7 -15 -30 -33 -38 -45 -32 -45 3 0 -5 -15 -19 -34 -15 -18 -23 -36
-20 -40 4 -3 1 -6 -5 -6 -7 0 -12 -5 -12 -10 0 -6 -11 -28 -25 -50 -14 -22
-23 -40 -19 -40 3 0 -2 -7 -10 -16 -9 -8 -14 -20 -11 -25 4 -5 2 -9 -2 -9 -14
0 -139 -254 -135 -272 1 -5 -3 -8 -8 -8 -6 0 -10 -6 -11 -12 0 -7 -11 -35 -24
-63 -13 -27 -21 -53 -19 -57 3 -5 0 -8 -7 -8 -7 0 -9 -3 -6 -6 4 -4 0 -19 -8
-33 -18 -33 -104 -259 -110 -291 -1 -3 -9 -32 -20 -65 -10 -33 -19 -62 -20
-65 0 -3 -10 -36 -22 -75 -18 -60 -29 -102 -39 -150 -1 -5 -7 -28 -12 -50 -6
-22 -14 -53 -17 -70 -7 -39 -14 -74 -20 -105 -11 -47 -27 -147 -40 -249 -2
-14 -6 -39 -9 -56 -6 -33 -14 -115 -21 -210 -3 -33 -8 -87 -12 -120 -4 -33 -7
-159 -8 -280 0 -196 4 -283 20 -420 2 -22 7 -69 10 -105 5 -58 11 -100 29
-220 3 -19 12 -71 21 -115 8 -44 17 -94 20 -112 10 -63 88 -361 122 -468 47
-145 133 -377 145 -392 6 -7 8 -13 5 -13 -3 0 8 -27 24 -60 16 -33 29 -67 29
-75 0 -8 3 -15 8 -15 4 0 23 -36 42 -80 19 -44 38 -80 43 -80 4 0 6 -4 2 -9
-3 -5 0 -15 7 -23 7 -7 30 -47 51 -88 42 -83 49 -95 90 -158 15 -24 27 -46 27
-51 0 -4 8 -16 18 -27 10 -10 19 -22 20 -27 2 -6 29 -52 66 -109 27 -41 120
-174 125 -178 3 -3 33 -41 66 -85 32 -44 64 -85 69 -91 6 -6 27 -30 46 -54 59
-72 68 -82 173 -195 56 -60 142 -148 192 -195 49 -47 98 -94 110 -105 12 -11
48 -42 80 -70 33 -27 62 -53 65 -56 7 -8 204 -162 230 -179 12 -8 57 -40 99
-70 43 -30 86 -60 97 -67 10 -6 62 -38 114 -71 52 -32 122 -74 155 -93 33 -19
69 -39 80 -46 43 -26 306 -153 315 -153 5 0 10 -5 10 -10 0 -6 3 -9 8 -8 4 2
52 -16 107 -39 55 -22 125 -50 155 -61 30 -12 87 -33 125 -48 39 -14 77 -27
85 -28 8 -2 22 -5 30 -8 33 -12 90 -29 107 -33 37 -7 134 -34 141 -39 5 -3 19
-7 33 -10 13 -3 35 -8 49 -11 14 -3 38 -8 54 -11 16 -2 32 -7 35 -9 4 -2 27
-6 51 -10 25 -3 59 -10 75 -15 17 -4 52 -11 78 -15 27 -4 58 -8 70 -11 30 -5
163 -23 222 -29 28 -3 66 -7 85 -10 178 -23 665 -23 885 1 28 2 68 7 90 9 22
2 58 6 80 10 22 3 54 7 70 9 85 12 124 18 165 26 69 15 103 21 125 24 11 1 38
7 60 13 40 10 133 32 157 37 7 2 20 5 28 8 8 3 35 11 60 17 119 31 456 144
507 170 10 5 43 19 73 31 98 40 123 52 250 115 166 81 284 146 288 156 2 5 8
7 13 3 5 -3 9 0 9 5 0 6 6 11 13 11 6 0 45 23 86 50 40 28 79 50 86 50 7 0 15
7 19 15 3 8 12 15 21 15 8 0 15 5 15 10 0 6 7 10 15 10 8 0 15 4 15 8 0 4 15
16 32 27 28 16 101 68 158 112 246 191 335 269 540 478 127 129 164 169 205
221 17 21 39 48 50 59 11 11 33 38 49 60 16 22 34 45 40 50 6 6 43 53 81 105
38 52 75 101 82 108 7 7 13 17 13 22 0 5 12 22 26 39 14 17 22 31 18 31 -4 0
3 8 14 19 12 10 22 26 22 35 0 9 4 16 8 16 7 0 30 36 97 152 46 79 166 306
190 358 16 36 38 77 48 92 10 16 16 28 12 28 -3 0 1 13 9 29 9 16 12 31 9 35
-4 3 -1 6 5 6 7 0 12 4 12 9 0 5 5 22 12 38 6 15 12 30 13 33 1 3 8 21 17 40
8 19 23 60 33 90 10 30 22 61 28 68 5 6 7 12 3 12 -4 0 0 14 9 30 9 17 13 30
9 30 -4 0 -2 6 4 13 6 7 13 24 15 37 3 14 12 45 21 70 19 56 65 220 77 280 6
25 16 72 24 105 16 67 24 107 30 147 2 15 9 53 14 85 11 60 17 105 26 183 5
42 12 103 20 160 27 208 21 776 -10 974 -2 11 -7 48 -10 81 -4 33 -9 69 -11
80 -1 11 -5 38 -8 60 -3 22 -8 51 -11 65 -6 33 -17 90 -20 115 -30 196 -187
712 -283 925 -11 25 -25 60 -32 78 -7 17 -16 32 -21 32 -5 0 -8 3 -7 8 2 9 -8
35 -43 107 -16 33 -29 65 -30 70 0 6 -6 17 -13 25 -7 8 -35 56 -61 105 -26 50
-56 102 -67 117 -10 14 -18 33 -18 41 0 9 -3 17 -8 19 -4 2 -27 35 -52 73 -25
39 -48 72 -53 73 -4 2 -5 7 -2 12 2 4 -4 15 -15 25 -11 10 -20 22 -20 26 0 5
-10 20 -22 35 -13 14 -23 29 -23 32 -1 23 -254 339 -397 494 -121 132 -282
288 -393 383 -32 28 -70 60 -84 72 -34 30 -32 28 -131 103 -47 36 -87 68 -90
71 -3 3 -34 25 -70 49 -36 24 -66 47 -68 52 -2 4 -10 8 -18 8 -8 0 -14 3 -14
8 0 4 -17 16 -37 27 -21 11 -40 22 -43 25 -8 9 -201 125 -260 156 -30 16 -58
34 -62 39 -4 6 -8 6 -8 1 0 -5 -6 -4 -13 2 -17 15 -210 110 -307 152 -41 18
-89 39 -107 47 -17 8 -37 16 -45 17 -7 2 -29 10 -48 18 -144 63 -596 199 -705
212 -16 2 -37 6 -45 9 -23 8 -71 18 -110 23 -19 3 -46 7 -60 10 -31 6 -62 11
-120 18 -25 3 -54 7 -65 10 -25 5 -110 14 -195 21 -36 3 -85 8 -110 11 -79 9
-525 16 -533 8z"/>
</g>
</svg>
